<svg xmlns="http://www.w3.org/2000/svg" viewBox="0 0 640 640">
  <!-- Background gradient representing deep space -->
  <defs>
    <radialGradient id="spaceGradient" cx="50%" cy="50%" r="70%" fx="50%" fy="50%">
      <stop offset="0%" stop-color="#1a1a3a" />
      <stop offset="50%" stop-color="#0c0c20" />
      <stop offset="100%" stop-color="#000010" />
    </radialGradient>

    <!-- Star glow filter -->
    <filter id="starGlow" x="-50%" y="-50%" width="200%" height="200%">
      <feGaussianBlur in="SourceGraphic" stdDeviation="1" result="blur" />
      <feComposite in="SourceGraphic" in2="blur" operator="over" />
    </filter>

    <!-- Nebula effect -->
    <filter id="nebulaEffect" x="-50%" y="-50%" width="200%" height="200%">
      <feTurbulence type="fractalNoise" baseFrequency="0.01" numOctaves="3" result="noise" />
      <feColorMatrix type="matrix" values="0 0 0 0 0.4 0 0 0 0 0.1 0 0 0 0 0.5 0 0 0 0.3 0" result="colorNoise" />
      <feBlend in="SourceGraphic" in2="colorNoise" mode="screen" />
    </filter>
  </defs>

  <!-- Space background -->
  <rect width="640" height="640" fill="url(#spaceGradient)" />

  <!-- Distant nebula -->
  <ellipse cx="520" cy="180" rx="200" ry="150" fill="#251442" opacity="0.4" filter="url(#nebulaEffect)" />
  <ellipse cx="150" cy="480" rx="180" ry="120" fill="#122536" opacity="0.3" filter="url(#nebulaEffect)" />

  <!-- Starfield - Small stars (many) -->
  <g fill="#FFFFFF">
    <!-- Random small stars -->
    <circle cx="30" cy="50" r="0.8" />
    <circle cx="60" cy="90" r="0.7" />
    <circle cx="120" cy="40" r="0.6" />
    <circle cx="190" cy="80" r="0.8" />
    <circle cx="250" cy="120" r="0.7" />
    <circle cx="310" cy="60" r="0.8" />
    <circle cx="375" cy="95" r="0.6" />
    <circle cx="425" cy="130" r="0.7" />
    <circle cx="480" cy="75" r="0.9" />
    <circle cx="530" cy="110" r="0.6" />
    <circle cx="580" cy="40" r="0.8" />
    <circle cx="45" cy="170" r="0.7" />
    <circle cx="95" cy="215" r="0.8" />
    <circle cx="150" cy="160" r="0.6" />
    <circle cx="210" cy="200" r="0.7" />
    <circle cx="270" cy="180" r="0.8" />
    <circle cx="330" cy="220" r="0.6" />
    <circle cx="390" cy="170" r="0.7" />
    <circle cx="445" cy="210" r="0.8" />
    <circle cx="500" cy="190" r="0.6" />
    <circle cx="560" cy="230" r="0.7" />
    <circle cx="35" cy="270" r="0.8" />
    <circle cx="90" cy="320" r="0.6" />
    <circle cx="145" cy="280" r="0.7" />
    <circle cx="200" cy="330" r="0.8" />
    <circle cx="260" cy="290" r="0.6" />
    <circle cx="320" cy="340" r="0.7" />
    <circle cx="380" cy="300" r="0.8" />
    <circle cx="440" cy="350" r="0.6" />
    <circle cx="495" cy="310" r="0.7" />
    <circle cx="550" cy="360" r="0.8" />
    <circle cx="40" cy="400" r="0.6" />
    <circle cx="100" cy="440" r="0.7" />
    <circle cx="160" cy="410" r="0.8" />
    <circle cx="220" cy="450" r="0.6" />
    <circle cx="280" cy="420" r="0.7" />
    <circle cx="340" cy="460" r="0.8" />
    <circle cx="400" cy="430" r="0.6" />
    <circle cx="460" cy="470" r="0.7" />
    <circle cx="520" cy="440" r="0.8" />
    <circle cx="580" cy="480" r="0.6" />
    <circle cx="50" cy="520" r="0.7" />
    <circle cx="110" cy="560" r="0.8" />
    <circle cx="170" cy="530" r="0.6" />
    <circle cx="230" cy="570" r="0.7" />
    <circle cx="290" cy="540" r="0.8" />
    <circle cx="350" cy="580" r="0.6" />
    <circle cx="410" cy="550" r="0.7" />
    <circle cx="470" cy="590" r="0.8" />
    <circle cx="530" cy="560" r="0.6" />
    <circle cx="590" cy="600" r="0.7" />
    <!-- More small stars to fill space -->
    <circle cx="75" cy="25" r="0.6" />
    <circle cx="135" cy="65" r="0.7" />
    <circle cx="195" cy="35" r="0.8" />
    <circle cx="255" cy="75" r="0.6" />
    <circle cx="315" cy="45" r="0.7" />
    <circle cx="375" cy="85" r="0.8" />
    <circle cx="435" cy="55" r="0.6" />
    <circle cx="495" cy="95" r="0.7" />
    <circle cx="555" cy="65" r="0.8" />
    <circle cx="615" cy="105" r="0.6" />
  </g>

  <!-- Medium stars -->
  <g fill="#FFFFFF" filter="url(#starGlow)">
    <circle cx="85" cy="145" r="1.5" />
    <circle cx="175" cy="235" r="1.4" />
    <circle cx="265" cy="125" r="1.6" />
    <circle cx="355" cy="275" r="1.3" />
    <circle cx="445" cy="165" r="1.5" />
    <circle cx="535" cy="255" r="1.4" />
    <circle cx="625" cy="145" r="1.6" />
    <circle cx="85" cy="345" r="1.3" />
    <circle cx="175" cy="435" r="1.5" />
    <circle cx="265" cy="325" r="1.4" />
    <circle cx="355" cy="475" r="1.6" />
    <circle cx="445" cy="365" r="1.3" />
    <circle cx="535" cy="455" r="1.5" />
    <circle cx="625" cy="345" r="1.4" />
    <circle cx="85" cy="545" r="1.6" />
    <circle cx="175" cy="635" r="1.3" />
    <circle cx="265" cy="525" r="1.5" />
    <circle cx="355" cy="615" r="1.4" />
    <circle cx="445" cy="565" r="1.6" />
    <circle cx="535" cy="605" r="1.3" />
  </g>

  <!-- Larger, brighter stars -->
  <g fill="#FFFFFF" filter="url(#starGlow)">
    <circle cx="120" cy="100" r="2.5" />
    <circle cx="320" cy="180" r="3.0" />
    <circle cx="520" cy="90" r="2.8" />
    <circle cx="200" cy="300" r="2.6" />
    <circle cx="400" cy="370" r="2.7" />
    <circle cx="140" cy="500" r="2.5" />
    <circle cx="460" cy="520" r="2.8" />
    <circle cx="580" cy="400" r="2.6" />
  </g>

  <!-- A few colored stars -->
  <g filter="url(#starGlow)">
    <circle cx="150" cy="220" r="2.0" fill="#A7D8FF" /> <!-- Blue star -->
    <circle cx="380" cy="120" r="2.2" fill="#FFD2A1" /> <!-- Orange star -->
    <circle cx="550" cy="320" r="2.1" fill="#FF9E9E" /> <!-- Red star -->
    <circle cx="280" cy="450" r="2.3" fill="#A1FFC2" /> <!-- Green-tinted star -->
    <circle cx="480" cy="500" r="2.0" fill="#E6A1FF" /> <!-- Purple-tinted star -->
  </g>

  <!-- Brightest star with rays -->
  <g>
    <circle cx="220" cy="150" r="3.5" fill="#FFFFFF" filter="url(#starGlow)" />
    <!-- Light rays from brightest star -->
    <line x1="205" y1="135" x2="235" y2="165" stroke="#FFFFFF" stroke-width="0.5" opacity="0.7" />
    <line x1="205" y1="165" x2="235" y2="135" stroke="#FFFFFF" stroke-width="0.5" opacity="0.7" />
    <line x1="220" y1="130" x2="220" y2="170" stroke="#FFFFFF" stroke-width="0.5" opacity="0.7" />
    <line x1="200" y1="150" x2="240" y2="150" stroke="#FFFFFF" stroke-width="0.5" opacity="0.7" />
  </g>
</svg>
