<svg width="100" height="100" xmlns="http://www.w3.org/2000/svg">
  <!-- Generate 30 random asteroids -->
  <g fill="#777">
    <circle cx="15" cy="20" r="3" />
    <circle cx="35" cy="15" r="2" />
    <circle cx="50" cy="30" r="4" />
    <circle cx="75" cy="25" r="2.5" />
    <circle cx="65" cy="45" r="3.5" />
    <circle cx="25" cy="55" r="2" />
    <circle cx="85" cy="60" r="3" />
    <circle cx="45" cy="70" r="4.5" />
    <circle cx="10" cy="80" r="2" />
    <circle cx="30" cy="85" r="3" />
    <circle cx="70" cy="75" r="2.5" />
    <circle cx="90" cy="40" r="1.5" />
    <circle cx="60" cy="10" r="2" />
    <circle cx="20" cy="40" r="3.5" />
    <circle cx="40" cy="50" r="2" />
    <circle cx="55" cy="85" r="1.5" />
    <circle cx="80" cy="90" r="3" />
    <circle cx="5" cy="60" r="2.5" />
    <circle cx="95" cy="70" r="1" />
    <circle cx="22" cy="72" r="2" />
    <path d="M78,15 l3,2 l1,3 l-4,1 z" />
    <path d="M35,88 l4,2 l-1,3 l-3,-1 z" />
    <path d="M67,33 l3,3 l-1,2 l-4,-1 z" />
    <path d="M18,10 l2,2 l2,-1 l-1,2 l-3,-1 z" />
    <path d="M50,55 l4,1 l1,3 l-3,1 l-2,-3 z" />
    <path d="M92,80 l2,1 l-1,2 l-2,-1 z" />
    <path d="M12,45 l3,-1 l1,3 l-2,1 z" />
  </g>
  <g fill="#555">
    <circle cx="25" cy="25" r="1" />
    <circle cx="40" cy="40" r="0.8" />
    <circle cx="60" cy="30" r="0.6" />
    <circle cx="80" cy="45" r="0.7" />
    <circle cx="55" cy="65" r="0.5" />
    <circle cx="35" cy="75" r="0.6" />
    <circle cx="70" cy="90" r="0.8" />
    <circle cx="15" cy="50" r="0.7" />
    <circle cx="85" cy="20" r="0.5" />
    <circle cx="45" cy="10" r="0.6" />
  </g>
</svg>
